<?xml version="1.0" encoding="UTF-8" standalone="no"?>
<!-- Generator: Adobe Illustrator 14.0.0, SVG Export Plug-In  -->

<svg
   xmlns:dc="http://purl.org/dc/elements/1.1/"
   xmlns:cc="http://creativecommons.org/ns#"
   xmlns:rdf="http://www.w3.org/1999/02/22-rdf-syntax-ns#"
   xmlns:svg="http://www.w3.org/2000/svg"
   xmlns="http://www.w3.org/2000/svg"
   xmlns:sodipodi="http://sodipodi.sourceforge.net/DTD/sodipodi-0.dtd"
   xmlns:inkscape="http://www.inkscape.org/namespaces/inkscape"
   version="1.1"
   x="0px"
   y="0px"
   width="285px"
   height="285px"
   viewBox="-0.866 -0.866 285 285"
   enable-background="new -0.866 -0.866 285 285"
   xml:space="preserve"
   id="svg3051"
   inkscape:version="0.48.4 r9939"
   sodipodi:docname="logo.svg"><metadata
     id="metadata3061"><rdf:RDF><cc:Work
         rdf:about=""><dc:format>image/svg+xml</dc:format><dc:type
           rdf:resource="http://purl.org/dc/dcmitype/StillImage" /></cc:Work></rdf:RDF></metadata><sodipodi:namedview
     pagecolor="#ffffff"
     bordercolor="#666666"
     borderopacity="1"
     objecttolerance="10"
     gridtolerance="10"
     guidetolerance="10"
     inkscape:pageopacity="0"
     inkscape:pageshadow="2"
     inkscape:window-width="1366"
     inkscape:window-height="718"
     id="namedview3059"
     showgrid="false"
     inkscape:snap-global="true"
     inkscape:zoom="1.877193"
     inkscape:cx="149.03904"
     inkscape:cy="144.9533"
     inkscape:window-x="0"
     inkscape:window-y="0"
     inkscape:window-maximized="1"
     inkscape:current-layer="svg3051"
     inkscape:snap-object-midpoints="true"
     inkscape:snap-smooth-nodes="true"
     inkscape:object-nodes="true" /><defs
     id="defs3053" /><path
     inkscape:connector-curvature="0"
     d="m 283.63285,141.36964 c 0,78.273 -63.457,141.73 -141.734,141.73 -78.276998,0 -141.73099813,-63.456 -141.73099813,-141.73 0,-78.278996 63.45300013,-141.73399553 141.72999813,-141.73399553 78.277,0 141.735,63.45499953 141.735,141.73399553 z"
     id="path3055-9"
     style="fill:#ffffff" /><path
     d="m 267.12101,141.36941 c 0,69.15419 -56.06426,125.21845 -125.22199,125.21845 -69.157718,0 -125.219328,-56.06337 -125.219328,-125.21845 0,-69.159498 56.060726,-125.22199 125.218458,-125.22199 69.15772,0 125.22286,56.062492 125.22286,125.22199 z"
     id="path3055"
     style="fill:#dd4814"
     inkscape:connector-curvature="0" /><path
     d="m 55.977865,124.65181 c -9.235226,0 -16.718471,7.48325 -16.718471,16.71847 0,9.23169 7.483245,16.71582 16.718471,16.71582 9.231691,0 16.715821,-7.48413 16.715821,-16.71582 0,-9.23611 -7.483246,-16.71847 -16.715821,-16.71847 z m 119.367025,75.98277 c -7.99656,4.61629 -10.73364,14.83661 -6.11912,22.82964 4.61717,7.99656 14.83661,10.73541 22.83317,6.11912 7.99391,-4.61541 10.73276,-14.83573 6.11647,-22.83141 -4.6154,-7.99302 -14.83661,-10.73276 -22.83052,-6.11735 z M 92.291483,141.36763 c 0,-16.52233 8.210367,-31.11599 20.765777,-39.95275 L 100.83493,80.941534 c -14.630762,9.775044 -25.513715,24.718556 -30.034585,42.220696 5.28068,4.30441 8.654766,10.8591 8.654766,18.20717 0,7.3463 -3.374086,13.90099 -8.655649,18.20452 4.519986,17.5039 15.403822,32.44742 30.034578,42.22158 l 12.22323,-20.47512 c -12.55542,-8.835 -20.765787,-23.42777 -20.765787,-39.95275 z M 141.12693,92.53217 c 25.51283,0 46.4403,19.56157 48.63403,44.50454 l 23.82623,-0.3481 c -1.17241,-18.41567 -9.21668,-34.95302 -21.57949,-47.10733 -6.3559,2.401353 -13.69867,2.037351 -20.04485,-1.627407 -6.35413,-3.668292 -10.34137,-9.856326 -11.43337,-16.571808 -6.17743,-1.709572 -12.67911,-2.641665 -19.40166,-2.641665 -11.56148,0 -22.48419,2.714112 -32.18678,7.520351 l 11.61448,20.81526 c 6.25253,-2.909366 13.21981,-4.543841 20.57141,-4.543841 z m 0,97.67181 c -7.35248,0 -14.31887,-1.63448 -20.57229,-4.54384 l -11.61625,20.81702 c 9.70347,4.80448 20.62706,7.51947 32.18854,7.51947 6.72256,0 13.22423,-0.93209 19.40255,-2.64166 1.092,-6.71549 5.08012,-12.90352 11.43515,-16.57446 6.34618,-3.66299 13.68895,-4.027 20.04485,-1.62476 12.36192,-12.15519 20.40619,-28.69255 21.57682,-47.10822 l -23.82622,-0.3481 c -2.19197,24.94651 -23.12032,44.50455 -48.63315,44.50455 z M 175.34225,82.099802 c 7.99566,4.618055 18.21688,1.878321 22.8314,-6.114703 4.61718,-7.996557 1.88008,-18.216885 -6.11647,-22.834056 -7.9948,-4.615404 -18.21512,-1.876554 -22.83229,6.120004 -4.61541,7.993025 -1.87656,18.214235 6.11736,22.828755 z"
     id="path3057"
     inkscape:connector-curvature="0"
     style="fill:#ffffff" /></svg>